<mxfile host="app.diagrams.net" modified="2024-04-02T18:06:31.105Z" agent="Mozilla/5.0 (Windows NT 10.0; Win64; x64) AppleWebKit/537.36 (KHTML, like Gecko) Chrome/123.0.0.0 Safari/537.36" etag="lSKsNUa78DEIW_AnQvlV" version="24.2.0" type="github">
  <diagram id="C5RBs43oDa-KdzZeNtuy" name="Page-1">
    <mxGraphModel dx="1120" dy="434" grid="1" gridSize="10" guides="1" tooltips="1" connect="1" arrows="1" fold="1" page="1" pageScale="1" pageWidth="827" pageHeight="1169" math="0" shadow="0">
      <root>
        <mxCell id="WIyWlLk6GJQsqaUBKTNV-0" />
        <mxCell id="WIyWlLk6GJQsqaUBKTNV-1" parent="WIyWlLk6GJQsqaUBKTNV-0" />
        <mxCell id="N6TmXU4ATOpdyIhgHLDr-13" value="&lt;p style=&quot;margin:0px;margin-top:4px;text-align:center;&quot;&gt;&lt;br&gt;&lt;b&gt;Equipos&lt;/b&gt;&lt;/p&gt;&lt;p style=&quot;margin:0px;margin-top:4px;text-align:center;&quot;&gt;&lt;b&gt;&lt;br&gt;&lt;/b&gt;&lt;/p&gt;&lt;p style=&quot;margin:0px;margin-top:4px;text-align:center;&quot;&gt;&lt;b&gt;+ partidos: Partido[]&lt;/b&gt;&lt;/p&gt;&lt;p style=&quot;margin:0px;margin-top:4px;text-align:center;&quot;&gt;&lt;b style=&quot;background-color: initial;&quot;&gt;&amp;nbsp; &amp;nbsp; &amp;nbsp; &amp;nbsp; &amp;nbsp; &amp;nbsp;&lt;/b&gt;&lt;/p&gt;&lt;p style=&quot;margin:0px;margin-top:4px;text-align:center;&quot;&gt;&lt;b&gt;+ titulares: Jugador[]&lt;/b&gt;&lt;/p&gt;&lt;p style=&quot;margin:0px;margin-top:4px;text-align:center;&quot;&gt;&lt;b&gt;&amp;nbsp;&lt;/b&gt;&lt;b style=&quot;background-color: initial;&quot;&gt;&amp;nbsp; &amp;nbsp; &amp;nbsp;&amp;nbsp;&lt;/b&gt;&lt;b style=&quot;background-color: initial;&quot;&gt;&amp;nbsp; &amp;nbsp;&lt;/b&gt;&lt;/p&gt;&lt;p style=&quot;margin:0px;margin-top:4px;text-align:center;&quot;&gt;&lt;b style=&quot;background-color: initial;&quot;&gt;+ suplentes: Jugador[]&lt;/b&gt;&lt;/p&gt;&lt;p style=&quot;margin:0px;margin-top:4px;text-align:center;&quot;&gt;&lt;b style=&quot;background-color: initial;&quot;&gt;&amp;nbsp; &amp;nbsp; &amp;nbsp; &amp;nbsp;&lt;/b&gt;&lt;/p&gt;&lt;p style=&quot;margin:0px;margin-top:4px;text-align:center;&quot;&gt;&lt;b style=&quot;background-color: initial;&quot;&gt;+ Nombre: String[]&amp;nbsp; &amp;nbsp; &amp;nbsp;&amp;nbsp;&lt;/b&gt;&lt;/p&gt;&lt;p style=&quot;margin:0px;margin-top:4px;text-align:center;&quot;&gt;&lt;b style=&quot;background-color: initial;&quot;&gt;&amp;nbsp; &amp;nbsp; &amp;nbsp; &amp;nbsp; &amp;nbsp; &amp;nbsp; &amp;nbsp;&lt;/b&gt;&lt;/p&gt;&lt;p style=&quot;margin:0px;margin-top:4px;text-align:center;&quot;&gt;&lt;b style=&quot;background-color: initial;&quot;&gt;&amp;nbsp; &amp;nbsp; &amp;nbsp;+ id: Number&amp;nbsp; &amp;nbsp; &amp;nbsp; &amp;nbsp; &amp;nbsp; &amp;nbsp; &amp;nbsp; &amp;nbsp; &amp;nbsp;&amp;nbsp;&lt;/b&gt;&lt;/p&gt;&lt;p style=&quot;margin:0px;margin-top:4px;text-align:center;&quot;&gt;&lt;b style=&quot;background-color: initial;&quot;&gt;&amp;nbsp; &amp;nbsp; &amp;nbsp; &amp;nbsp;&lt;/b&gt;&lt;b style=&quot;background-color: initial;&quot;&gt;&amp;nbsp;&lt;/b&gt;&lt;/p&gt;" style="verticalAlign=top;align=left;overflow=fill;html=1;whiteSpace=wrap;" parent="WIyWlLk6GJQsqaUBKTNV-1" vertex="1">
          <mxGeometry x="160" y="10" width="180" height="230" as="geometry" />
        </mxCell>
        <mxCell id="N6TmXU4ATOpdyIhgHLDr-18" value="&lt;p style=&quot;margin:0px;margin-top:4px;text-align:center;&quot;&gt;&lt;br&gt;&lt;b&gt;Partido&lt;/b&gt;&lt;/p&gt;&lt;p style=&quot;margin:0px;margin-top:4px;text-align:center;&quot;&gt;&lt;b&gt;&lt;br&gt;&lt;/b&gt;&lt;/p&gt;&lt;p style=&quot;margin:0px;margin-top:4px;text-align:center;&quot;&gt;&lt;b&gt;+ fecha: String&lt;/b&gt;&lt;/p&gt;&lt;p style=&quot;margin:0px;margin-top:4px;text-align:center;&quot;&gt;&lt;b&gt;&amp;nbsp; &amp;nbsp; &amp;nbsp; &amp;nbsp;&amp;nbsp;&lt;/b&gt;&lt;/p&gt;&lt;p style=&quot;margin:0px;margin-top:4px;text-align:center;&quot;&gt;&lt;b&gt;+ equipo: Equipos[]&lt;/b&gt;&lt;/p&gt;&lt;p style=&quot;margin:0px;margin-top:4px;text-align:center;&quot;&gt;&lt;b&gt;&lt;br&gt;&lt;/b&gt;&lt;/p&gt;&lt;p style=&quot;margin:0px;margin-top:4px;text-align:center;&quot;&gt;&lt;b&gt;+id: Number&lt;/b&gt;&lt;/p&gt;&lt;p style=&quot;margin:0px;margin-top:4px;text-align:center;&quot;&gt;&lt;b&gt;&lt;br&gt;&lt;/b&gt;&lt;/p&gt;&lt;p style=&quot;margin:0px;margin-top:4px;text-align:center;&quot;&gt;&lt;b&gt;&lt;br&gt;&lt;/b&gt;&lt;/p&gt;&lt;p style=&quot;margin:0px;margin-top:4px;text-align:center;&quot;&gt;&lt;b&gt;&lt;br&gt;&lt;/b&gt;&lt;/p&gt;" style="verticalAlign=top;align=left;overflow=fill;html=1;whiteSpace=wrap;" parent="WIyWlLk6GJQsqaUBKTNV-1" vertex="1">
          <mxGeometry x="520" y="60" width="140" height="160" as="geometry" />
        </mxCell>
        <mxCell id="N6TmXU4ATOpdyIhgHLDr-19" value="" style="line;strokeWidth=1;fillColor=none;align=left;verticalAlign=middle;spacingTop=-1;spacingLeft=3;spacingRight=3;rotatable=0;labelPosition=right;points=[];portConstraint=eastwest;strokeColor=inherit;" parent="WIyWlLk6GJQsqaUBKTNV-1" vertex="1">
          <mxGeometry x="160" y="52" width="180" height="8" as="geometry" />
        </mxCell>
        <mxCell id="N6TmXU4ATOpdyIhgHLDr-20" value="" style="line;strokeWidth=1;fillColor=none;align=left;verticalAlign=middle;spacingTop=-1;spacingLeft=3;spacingRight=3;rotatable=0;labelPosition=right;points=[];portConstraint=eastwest;strokeColor=inherit;" parent="WIyWlLk6GJQsqaUBKTNV-1" vertex="1">
          <mxGeometry x="520" y="90" width="140" height="8" as="geometry" />
        </mxCell>
        <mxCell id="N6TmXU4ATOpdyIhgHLDr-32" value="" style="edgeStyle=none;orthogonalLoop=1;jettySize=auto;html=1;rounded=0;exitX=0;exitY=0.25;exitDx=0;exitDy=0;" parent="WIyWlLk6GJQsqaUBKTNV-1" source="N6TmXU4ATOpdyIhgHLDr-18" edge="1">
          <mxGeometry width="100" relative="1" as="geometry">
            <mxPoint x="400" y="90" as="sourcePoint" />
            <mxPoint x="340" y="120" as="targetPoint" />
            <Array as="points" />
          </mxGeometry>
        </mxCell>
        <mxCell id="N6TmXU4ATOpdyIhgHLDr-34" value="&lt;p style=&quot;margin:0px;margin-top:4px;text-align:center;&quot;&gt;&lt;b data-sider-select-id=&quot;a7a40320-f19d-4fc1-95dc-b03b28538d4d&quot;&gt;&lt;br data-sider-select-id=&quot;e5c41f47-c53c-415f-8c90-70e809cf5887&quot;&gt;&lt;/b&gt;&lt;/p&gt;&lt;p style=&quot;margin:0px;margin-top:4px;text-align:center;&quot;&gt;&lt;b data-sider-select-id=&quot;a7a40320-f19d-4fc1-95dc-b03b28538d4d&quot;&gt;Jugador&lt;/b&gt;&lt;/p&gt;&lt;br&gt;&lt;div data-sider-select-id=&quot;8b6dcdb6-bd75-40a6-acd1-ebbbce19c59f&quot; style=&quot;height:2px;&quot;&gt;&amp;nbsp; + nombre : String&lt;/div&gt;&lt;div data-sider-select-id=&quot;8b6dcdb6-bd75-40a6-acd1-ebbbce19c59f&quot; style=&quot;height:2px;&quot;&gt;&lt;br&gt;&lt;/div&gt;&lt;div data-sider-select-id=&quot;8b6dcdb6-bd75-40a6-acd1-ebbbce19c59f&quot; style=&quot;height:2px;&quot;&gt;&lt;br&gt;&lt;/div&gt;&lt;div data-sider-select-id=&quot;8b6dcdb6-bd75-40a6-acd1-ebbbce19c59f&quot; style=&quot;height:2px;&quot;&gt;&amp;nbsp;&lt;/div&gt;&lt;div data-sider-select-id=&quot;8b6dcdb6-bd75-40a6-acd1-ebbbce19c59f&quot; style=&quot;height:2px;&quot;&gt;&lt;br&gt;&lt;/div&gt;&lt;div data-sider-select-id=&quot;8b6dcdb6-bd75-40a6-acd1-ebbbce19c59f&quot; style=&quot;height:2px;&quot;&gt;&lt;br&gt;&lt;/div&gt;&lt;div data-sider-select-id=&quot;8b6dcdb6-bd75-40a6-acd1-ebbbce19c59f&quot; style=&quot;height:2px;&quot;&gt;&lt;br&gt;&lt;/div&gt;&lt;div data-sider-select-id=&quot;8b6dcdb6-bd75-40a6-acd1-ebbbce19c59f&quot; style=&quot;height:2px;&quot;&gt;&lt;br&gt;&lt;/div&gt;&lt;div data-sider-select-id=&quot;8b6dcdb6-bd75-40a6-acd1-ebbbce19c59f&quot; style=&quot;height:2px;&quot;&gt;&lt;br&gt;&lt;/div&gt;&lt;div data-sider-select-id=&quot;8b6dcdb6-bd75-40a6-acd1-ebbbce19c59f&quot; style=&quot;height:2px;&quot;&gt;&lt;br&gt;&lt;/div&gt;&lt;div data-sider-select-id=&quot;8b6dcdb6-bd75-40a6-acd1-ebbbce19c59f&quot; style=&quot;height:2px;&quot;&gt;&lt;br&gt;&lt;/div&gt;&lt;div data-sider-select-id=&quot;8b6dcdb6-bd75-40a6-acd1-ebbbce19c59f&quot; style=&quot;height:2px;&quot;&gt;&lt;br&gt;&lt;/div&gt;&lt;div data-sider-select-id=&quot;1948cd24-e682-4125-9dbd-65ff95fe849f&quot; style=&quot;height:2px;&quot;&gt;&amp;nbsp; + apellido : String&lt;/div&gt;&lt;div data-sider-select-id=&quot;1948cd24-e682-4125-9dbd-65ff95fe849f&quot; style=&quot;height:2px;&quot;&gt;&lt;br&gt;&lt;/div&gt;&lt;div data-sider-select-id=&quot;1948cd24-e682-4125-9dbd-65ff95fe849f&quot; style=&quot;height:2px;&quot;&gt;&lt;br&gt;&lt;/div&gt;&lt;div data-sider-select-id=&quot;1948cd24-e682-4125-9dbd-65ff95fe849f&quot; style=&quot;height:2px;&quot;&gt;&lt;br&gt;&lt;/div&gt;&lt;div data-sider-select-id=&quot;1948cd24-e682-4125-9dbd-65ff95fe849f&quot; style=&quot;height:2px;&quot;&gt;&amp;nbsp;&amp;nbsp;&lt;/div&gt;&lt;div data-sider-select-id=&quot;1948cd24-e682-4125-9dbd-65ff95fe849f&quot; style=&quot;height:2px;&quot;&gt;&lt;br&gt;&lt;/div&gt;&lt;div data-sider-select-id=&quot;1948cd24-e682-4125-9dbd-65ff95fe849f&quot; style=&quot;height:2px;&quot;&gt;&lt;br&gt;&lt;/div&gt;&lt;div data-sider-select-id=&quot;1948cd24-e682-4125-9dbd-65ff95fe849f&quot; style=&quot;height:2px;&quot;&gt;&lt;br&gt;&lt;/div&gt;&lt;div data-sider-select-id=&quot;1948cd24-e682-4125-9dbd-65ff95fe849f&quot; style=&quot;height:2px;&quot;&gt;&lt;br&gt;&lt;/div&gt;&lt;div data-sider-select-id=&quot;1948cd24-e682-4125-9dbd-65ff95fe849f&quot; style=&quot;height:2px;&quot;&gt;&lt;br&gt;&lt;/div&gt;&lt;div data-sider-select-id=&quot;1948cd24-e682-4125-9dbd-65ff95fe849f&quot; style=&quot;height:2px;&quot;&gt;&amp;nbsp;&amp;nbsp;&lt;/div&gt;&lt;div data-sider-select-id=&quot;1948cd24-e682-4125-9dbd-65ff95fe849f&quot; style=&quot;height:2px;&quot;&gt;&lt;br&gt;&lt;/div&gt;&lt;div data-sider-select-id=&quot;1948cd24-e682-4125-9dbd-65ff95fe849f&quot; style=&quot;height:2px;&quot;&gt;&amp;nbsp; + id : Number&lt;/div&gt;&lt;div data-sider-select-id=&quot;1948cd24-e682-4125-9dbd-65ff95fe849f&quot; style=&quot;height:2px;&quot;&gt;&lt;br&gt;&lt;/div&gt;&lt;div data-sider-select-id=&quot;1948cd24-e682-4125-9dbd-65ff95fe849f&quot; style=&quot;height:2px;&quot;&gt;&lt;br&gt;&lt;/div&gt;&lt;div data-sider-select-id=&quot;1948cd24-e682-4125-9dbd-65ff95fe849f&quot; style=&quot;height:2px;&quot;&gt;&lt;br&gt;&lt;/div&gt;&lt;div data-sider-select-id=&quot;1948cd24-e682-4125-9dbd-65ff95fe849f&quot; style=&quot;height:2px;&quot;&gt;&lt;br&gt;&lt;/div&gt;&lt;div data-sider-select-id=&quot;1948cd24-e682-4125-9dbd-65ff95fe849f&quot; style=&quot;height:2px;&quot;&gt;&lt;br&gt;&lt;/div&gt;&lt;div data-sider-select-id=&quot;1948cd24-e682-4125-9dbd-65ff95fe849f&quot; style=&quot;height:2px;&quot;&gt;&lt;br&gt;&lt;/div&gt;&lt;div data-sider-select-id=&quot;1948cd24-e682-4125-9dbd-65ff95fe849f&quot; style=&quot;height:2px;&quot;&gt;&lt;br&gt;&lt;/div&gt;&lt;div data-sider-select-id=&quot;1948cd24-e682-4125-9dbd-65ff95fe849f&quot; style=&quot;height:2px;&quot;&gt;&lt;br&gt;&lt;/div&gt;&lt;div data-sider-select-id=&quot;1948cd24-e682-4125-9dbd-65ff95fe849f&quot; style=&quot;height:2px;&quot;&gt;&lt;br&gt;&lt;/div&gt;&lt;div data-sider-select-id=&quot;1948cd24-e682-4125-9dbd-65ff95fe849f&quot; style=&quot;height:2px;&quot;&gt;&lt;br&gt;&lt;/div&gt;&lt;div data-sider-select-id=&quot;1948cd24-e682-4125-9dbd-65ff95fe849f&quot; style=&quot;height:2px;&quot;&gt;&amp;nbsp; &amp;nbsp;&lt;/div&gt;&lt;div data-sider-select-id=&quot;1948cd24-e682-4125-9dbd-65ff95fe849f&quot; style=&quot;height:2px;&quot;&gt;&amp;nbsp; + equipo : Equipo []&lt;/div&gt;&lt;div data-sider-select-id=&quot;1948cd24-e682-4125-9dbd-65ff95fe849f&quot; style=&quot;height:2px;&quot;&gt;&lt;br&gt;&lt;/div&gt;&lt;div data-sider-select-id=&quot;1948cd24-e682-4125-9dbd-65ff95fe849f&quot; style=&quot;height:2px;&quot;&gt;&lt;br&gt;&lt;/div&gt;&lt;div data-sider-select-id=&quot;1948cd24-e682-4125-9dbd-65ff95fe849f&quot; style=&quot;height:2px;&quot;&gt;&lt;br&gt;&lt;/div&gt;&lt;div data-sider-select-id=&quot;1948cd24-e682-4125-9dbd-65ff95fe849f&quot; style=&quot;height:2px;&quot;&gt;&lt;br&gt;&lt;/div&gt;&lt;div data-sider-select-id=&quot;1948cd24-e682-4125-9dbd-65ff95fe849f&quot; style=&quot;height:2px;&quot;&gt;&lt;br&gt;&lt;/div&gt;&lt;div data-sider-select-id=&quot;1948cd24-e682-4125-9dbd-65ff95fe849f&quot; style=&quot;height:2px;&quot;&gt;&lt;br&gt;&lt;/div&gt;&lt;div data-sider-select-id=&quot;1948cd24-e682-4125-9dbd-65ff95fe849f&quot; style=&quot;height:2px;&quot;&gt;&lt;br&gt;&lt;/div&gt;&lt;div data-sider-select-id=&quot;1948cd24-e682-4125-9dbd-65ff95fe849f&quot; style=&quot;height:2px;&quot;&gt;&lt;br&gt;&lt;/div&gt;&lt;div data-sider-select-id=&quot;1948cd24-e682-4125-9dbd-65ff95fe849f&quot; style=&quot;height:2px;&quot;&gt;&lt;br&gt;&lt;/div&gt;&lt;div data-sider-select-id=&quot;1948cd24-e682-4125-9dbd-65ff95fe849f&quot; style=&quot;height:2px;&quot;&gt;&lt;br&gt;&lt;/div&gt;&lt;div data-sider-select-id=&quot;1948cd24-e682-4125-9dbd-65ff95fe849f&quot; style=&quot;height:2px;&quot;&gt;&amp;nbsp; &amp;nbsp;&lt;/div&gt;&lt;div data-sider-select-id=&quot;1948cd24-e682-4125-9dbd-65ff95fe849f&quot; style=&quot;height:2px;&quot;&gt;&amp;nbsp; + goles : Number&lt;/div&gt;&lt;div data-sider-select-id=&quot;1948cd24-e682-4125-9dbd-65ff95fe849f&quot; style=&quot;height:2px;&quot;&gt;&lt;br&gt;&lt;/div&gt;&lt;div data-sider-select-id=&quot;1948cd24-e682-4125-9dbd-65ff95fe849f&quot; style=&quot;height:2px;&quot;&gt;&lt;br&gt;&lt;/div&gt;&lt;div data-sider-select-id=&quot;1948cd24-e682-4125-9dbd-65ff95fe849f&quot; style=&quot;height:2px;&quot;&gt;&amp;nbsp;&amp;nbsp;&lt;/div&gt;&lt;div data-sider-select-id=&quot;1948cd24-e682-4125-9dbd-65ff95fe849f&quot; style=&quot;height:2px;&quot;&gt;&amp;nbsp;&amp;nbsp;&lt;/div&gt;&lt;div data-sider-select-id=&quot;1948cd24-e682-4125-9dbd-65ff95fe849f&quot; style=&quot;height:2px;&quot;&gt;&amp;nbsp;&lt;/div&gt;&lt;div data-sider-select-id=&quot;1948cd24-e682-4125-9dbd-65ff95fe849f&quot; style=&quot;height:2px;&quot;&gt;&lt;br&gt;&lt;/div&gt;&lt;div data-sider-select-id=&quot;1948cd24-e682-4125-9dbd-65ff95fe849f&quot; style=&quot;height:2px;&quot;&gt;&amp;nbsp;&amp;nbsp;&lt;/div&gt;" style="verticalAlign=top;align=left;overflow=fill;html=1;whiteSpace=wrap;" parent="WIyWlLk6GJQsqaUBKTNV-1" vertex="1">
          <mxGeometry x="180" y="310" width="140" height="180" as="geometry" />
        </mxCell>
        <mxCell id="hGdhIQdXAWb0xohVFK2z-0" value="" style="line;strokeWidth=1;fillColor=none;align=left;verticalAlign=middle;spacingTop=-1;spacingLeft=3;spacingRight=3;rotatable=0;labelPosition=right;points=[];portConstraint=eastwest;strokeColor=inherit;" vertex="1" parent="WIyWlLk6GJQsqaUBKTNV-1">
          <mxGeometry x="180" y="350" width="140" height="8" as="geometry" />
        </mxCell>
        <mxCell id="hGdhIQdXAWb0xohVFK2z-8" value="" style="endArrow=open;endFill=1;endSize=12;html=1;rounded=0;" edge="1" parent="WIyWlLk6GJQsqaUBKTNV-1">
          <mxGeometry width="160" relative="1" as="geometry">
            <mxPoint x="249.5" y="310" as="sourcePoint" />
            <mxPoint x="250" y="240" as="targetPoint" />
          </mxGeometry>
        </mxCell>
      </root>
    </mxGraphModel>
  </diagram>
</mxfile>
